<svg width="1600" height="900" viewBox="0 0 1600 900" fill="none" xmlns="http://www.w3.org/2000/svg" role="img" aria-labelledby="title desc">
  <title id="title">RV-Insights Private Knowledge Retrieval Concept Preview</title>
  <desc id="desc">Concept preview artwork for a future private knowledge retrieval video with light technology motifs and red-blue highlights.</desc>
  <defs>
    <linearGradient id="bg" x1="140" y1="70" x2="1450" y2="820" gradientUnits="userSpaceOnUse">
      <stop offset="0" stop-color="#F8FBFF"/>
      <stop offset="0.58" stop-color="#F4F7FC"/>
      <stop offset="1" stop-color="#EEF3FA"/>
    </linearGradient>
    <radialGradient id="glowBlue" cx="0" cy="0" r="1" gradientUnits="userSpaceOnUse" gradientTransform="translate(1190 260) rotate(90) scale(270 360)">
      <stop offset="0" stop-color="#8CC8FF" stop-opacity="0.32"/>
      <stop offset="1" stop-color="#8CC8FF" stop-opacity="0"/>
    </radialGradient>
    <radialGradient id="glowRed" cx="0" cy="0" r="1" gradientUnits="userSpaceOnUse" gradientTransform="translate(460 720) rotate(90) scale(240 340)">
      <stop offset="0" stop-color="#FF9790" stop-opacity="0.25"/>
      <stop offset="1" stop-color="#FF9790" stop-opacity="0"/>
    </radialGradient>
    <linearGradient id="panel" x1="182" y1="132" x2="1418" y2="768" gradientUnits="userSpaceOnUse">
      <stop offset="0" stop-color="#FFFFFF" stop-opacity="0.98"/>
      <stop offset="1" stop-color="#F5F8FD" stop-opacity="0.96"/>
    </linearGradient>
    <linearGradient id="flow" x1="482" y1="536" x2="1186" y2="536" gradientUnits="userSpaceOnUse">
      <stop offset="0" stop-color="#FF6A5E"/>
      <stop offset="1" stop-color="#3B82F6"/>
    </linearGradient>
    <filter id="shadow" x="180" y="120" width="1240" height="660" filterUnits="userSpaceOnUse" color-interpolation-filters="sRGB">
      <feDropShadow dx="0" dy="24" stdDeviation="32" flood-color="#8EA6C4" flood-opacity="0.18"/>
    </filter>
  </defs>

  <rect width="1600" height="900" rx="36" fill="url(#bg)"/>
  <rect x="48" y="48" width="1504" height="804" rx="28" stroke="#D7E3F2"/>
  <path d="M120 195H1480" stroke="#E5EDF7"/>
  <path d="M120 450H1480" stroke="#E5EDF7"/>
  <path d="M120 705H1480" stroke="#E5EDF7"/>
  <path d="M320 80V820" stroke="#E5EDF7"/>
  <path d="M800 80V820" stroke="#E5EDF7"/>
  <path d="M1280 80V820" stroke="#E5EDF7"/>
  <ellipse cx="1190" cy="260" rx="360" ry="270" fill="url(#glowBlue)"/>
  <ellipse cx="460" cy="720" rx="340" ry="240" fill="url(#glowRed)"/>

  <g filter="url(#shadow)">
    <rect x="180" y="132" width="1240" height="636" rx="34" fill="url(#panel)" stroke="#DCE7F4"/>
  </g>

  <text x="228" y="284" fill="#0F172A" font-family="Arial, Helvetica, sans-serif" font-size="60" font-weight="700">Private Knowledge Retrieval</text>
  <text x="228" y="330" fill="#4D5F77" font-family="Arial, Helvetica, sans-serif" font-size="24">Concept preview for retrieval, grounding, and controlled access.</text>

  <rect x="228" y="374" width="198" height="40" rx="20" fill="#EFF6FF" stroke="#CBE0FF"/>
  <text x="258" y="400" fill="#2563EB" font-family="Arial, Helvetica, sans-serif" font-size="20" font-weight="700">FUTURE DEMO</text>

  <rect x="228" y="470" width="250" height="200" rx="30" fill="#FFFFFF" stroke="#D9E4F1"/>
  <text x="262" y="520" fill="#20314A" font-family="Arial, Helvetica, sans-serif" font-size="26" font-weight="700">Private docs</text>
  <rect x="262" y="548" width="180" height="24" rx="12" fill="#EEF4FF"/>
  <rect x="262" y="584" width="146" height="24" rx="12" fill="#FFF1EF"/>
  <rect x="262" y="620" width="164" height="24" rx="12" fill="#EEF4FF"/>
  <rect x="420" y="540" width="32" height="112" rx="16" fill="#F4F8FD" stroke="#D4E1F0"/>
  <circle cx="436" cy="570" r="8" fill="#FF6A5E"/>
  <circle cx="436" cy="606" r="8" fill="#3B82F6"/>

  <path d="M482 570H676" stroke="url(#flow)" stroke-width="8" stroke-linecap="round" stroke-dasharray="12 16"/>
  <circle cx="546" cy="570" r="13" fill="#FF6A5E"/>
  <circle cx="610" cy="570" r="13" fill="#FDA4AF"/>

  <rect x="694" y="446" width="236" height="244" rx="30" fill="#FFFFFF" stroke="#D9E4F1"/>
  <text x="730" y="498" fill="#20314A" font-family="Arial, Helvetica, sans-serif" font-size="26" font-weight="700">Retriever</text>
  <circle cx="812" cy="574" r="70" fill="#F3F8FF" stroke="#D7E4F4"/>
  <path d="M780 574H844" stroke="#3B82F6" stroke-width="6" stroke-linecap="round"/>
  <path d="M812 542V606" stroke="#FF6A5E" stroke-width="6" stroke-linecap="round"/>
  <path d="M742 646H882" stroke="#9CB0C8" stroke-width="3" stroke-linecap="round"/>

  <path d="M948 570H1142" stroke="url(#flow)" stroke-width="8" stroke-linecap="round" stroke-dasharray="12 16"/>
  <circle cx="1012" cy="570" r="13" fill="#93C5FD"/>
  <circle cx="1076" cy="570" r="13" fill="#3B82F6"/>

  <rect x="1160" y="426" width="210" height="268" rx="30" fill="#172338"/>
  <rect x="1192" y="462" width="146" height="34" rx="17" fill="#263551"/>
  <text x="1215" y="485" fill="#D9E4F2" font-family="Arial, Helvetica, sans-serif" font-size="20" font-weight="700">Grounded answer</text>
  <rect x="1192" y="522" width="146" height="54" rx="16" fill="#213049"/>
  <path d="M1216 548H1314" stroke="#9BC5FF" stroke-width="4" stroke-linecap="round"/>
  <path d="M1216 568H1274" stroke="#FCA5A5" stroke-width="4" stroke-linecap="round"/>
  <rect x="1192" y="598" width="146" height="56" rx="16" fill="#213049"/>
  <path d="M1216 624H1310" stroke="#D7E4F2" stroke-width="4" stroke-linecap="round"/>
  <path d="M1216 644H1268" stroke="#D7E4F2" stroke-width="4" stroke-linecap="round"/>

  <rect x="258" y="194" width="214" height="42" rx="21" fill="#FFFFFF" stroke="#D6E4F2"/>
  <circle cx="284" cy="215" r="6" fill="#3B82F6"/>
  <path d="M304 215H450" stroke="#A1B5CB" stroke-width="2" stroke-linecap="round" stroke-dasharray="1 9"/>

  <rect x="228" y="718" width="1142" height="1" fill="#D8E4F2"/>
  <text x="228" y="778" fill="#6B7E96" font-family="Arial, Helvetica, sans-serif" font-size="20">Access-aware retrieval flow for secure enterprise knowledge.</text>
</svg>
