<svg width="1600" height="900" viewBox="0 0 1600 900" fill="none" xmlns="http://www.w3.org/2000/svg" role="img" aria-labelledby="title desc">
  <title id="title">RV-Insights model and stack overview concept preview</title>
  <desc id="desc">Concept preview artwork highlighting model access, vector stores, retrieval flow, and homepage-level stack signals without inventing backend service topology.</desc>
  <defs>
    <linearGradient id="bg" x1="110" y1="70" x2="1460" y2="820" gradientUnits="userSpaceOnUse">
      <stop offset="0" stop-color="#F8FBFF"/>
      <stop offset="0.58" stop-color="#F4F7FC"/>
      <stop offset="1" stop-color="#EEF3FA"/>
    </linearGradient>
    <radialGradient id="glowBlue" cx="0" cy="0" r="1" gradientUnits="userSpaceOnUse" gradientTransform="translate(1210 190) rotate(90) scale(240 350)">
      <stop offset="0" stop-color="#8CC8FF" stop-opacity="0.3"/>
      <stop offset="1" stop-color="#8CC8FF" stop-opacity="0"/>
    </radialGradient>
    <radialGradient id="glowRed" cx="0" cy="0" r="1" gradientUnits="userSpaceOnUse" gradientTransform="translate(450 716) rotate(90) scale(230 330)">
      <stop offset="0" stop-color="#FF9790" stop-opacity="0.24"/>
      <stop offset="1" stop-color="#FF9790" stop-opacity="0"/>
    </radialGradient>
    <linearGradient id="panel" x1="182" y1="132" x2="1418" y2="768" gradientUnits="userSpaceOnUse">
      <stop offset="0" stop-color="#FFFFFF" stop-opacity="0.98"/>
      <stop offset="1" stop-color="#F5F8FD" stop-opacity="0.96"/>
    </linearGradient>
    <linearGradient id="accent" x1="456" y1="0" x2="1148" y2="0" gradientUnits="userSpaceOnUse">
      <stop offset="0" stop-color="#FF6A5E"/>
      <stop offset="1" stop-color="#3B82F6"/>
    </linearGradient>
    <filter id="shadow" x="180" y="120" width="1240" height="660" filterUnits="userSpaceOnUse" color-interpolation-filters="sRGB">
      <feDropShadow dx="0" dy="24" stdDeviation="32" flood-color="#8EA6C4" flood-opacity="0.18"/>
    </filter>
  </defs>

  <rect width="1600" height="900" rx="36" fill="url(#bg)"/>
  <rect x="48" y="48" width="1504" height="804" rx="28" stroke="#D7E3F2"/>
  <path d="M120 195H1480" stroke="#E5EDF7"/>
  <path d="M120 450H1480" stroke="#E5EDF7"/>
  <path d="M120 705H1480" stroke="#E5EDF7"/>
  <path d="M320 80V820" stroke="#E5EDF7"/>
  <path d="M800 80V820" stroke="#E5EDF7"/>
  <path d="M1280 80V820" stroke="#E5EDF7"/>
  <ellipse cx="1210" cy="190" rx="350" ry="240" fill="url(#glowBlue)"/>
  <ellipse cx="450" cy="716" rx="330" ry="230" fill="url(#glowRed)"/>

  <g filter="url(#shadow)">
    <rect x="180" y="132" width="1240" height="636" rx="34" fill="url(#panel)" stroke="#DCE7F4"/>
  </g>

  <rect x="228" y="178" width="274" height="42" rx="21" fill="#FFFFFF" stroke="#D6E4F2"/>
  <circle cx="254" cy="199" r="6" fill="#3B82F6"/>
  <path d="M274 199H480" stroke="#A1B5CB" stroke-width="2" stroke-linecap="round" stroke-dasharray="1 9"/>

  <text x="228" y="284" fill="#0F172A" font-family="Arial, Helvetica, sans-serif" font-size="60" font-weight="700">Model and Stack Overview</text>
  <text x="228" y="330" fill="#4D5F77" font-family="Arial, Helvetica, sans-serif" font-size="24">Concept preview for capabilities, integration points, and runtime signals.</text>

  <rect x="228" y="374" width="248" height="40" rx="20" fill="#EFF6FF" stroke="#D1E3FF"/>
  <text x="258" y="400" fill="#2563EB" font-family="Arial, Helvetica, sans-serif" font-size="20" font-weight="700">STACK SNAPSHOT</text>

  <rect x="228" y="468" width="308" height="206" rx="30" fill="#FFFFFF" stroke="#D9E4F1"/>
  <text x="264" y="520" fill="#20314A" font-family="Arial, Helvetica, sans-serif" font-size="26" font-weight="700">Model access</text>
  <rect x="264" y="548" width="110" height="34" rx="17" fill="#EEF4FF" stroke="#D6E5F7"/>
  <text x="294" y="570" fill="#2563EB" font-family="Arial, Helvetica, sans-serif" font-size="18" font-weight="700">Qwen</text>
  <rect x="388" y="548" width="110" height="34" rx="17" fill="#FFF1EF" stroke="#FFD9D3"/>
  <text x="423" y="570" fill="#D9483B" font-family="Arial, Helvetica, sans-serif" font-size="18" font-weight="700">GLM</text>
  <rect x="264" y="598" width="110" height="34" rx="17" fill="#EEF4FF" stroke="#D6E5F7"/>
  <text x="294" y="620" fill="#2563EB" font-family="Arial, Helvetica, sans-serif" font-size="18" font-weight="700">ERNIE</text>
  <rect x="388" y="598" width="110" height="34" rx="17" fill="#FFF1EF" stroke="#FFD9D3"/>
  <text x="410" y="620" fill="#D9483B" font-family="Arial, Helvetica, sans-serif" font-size="18" font-weight="700">Baichuan</text>

  <path d="M536 570H658" stroke="url(#accent)" stroke-width="8" stroke-linecap="round" stroke-dasharray="12 16"/>
  <circle cx="590" cy="570" r="12" fill="#FF6A5E"/>
  <circle cx="626" cy="570" r="12" fill="#F97316"/>

  <rect x="682" y="438" width="236" height="262" rx="30" fill="#FFFFFF" stroke="#D9E4F1"/>
  <text x="718" y="490" fill="#20314A" font-family="Arial, Helvetica, sans-serif" font-size="26" font-weight="700">Core signals</text>
  <rect x="718" y="526" width="166" height="46" rx="16" fill="#F4F8FD" stroke="#D6E4F4"/>
  <text x="742" y="555" fill="#20314A" font-family="Arial, Helvetica, sans-serif" font-size="18" font-weight="700">RVAgent</text>
  <rect x="718" y="586" width="166" height="46" rx="16" fill="#F4F8FD" stroke="#D6E4F4"/>
  <text x="745" y="615" fill="#20314A" font-family="Arial, Helvetica, sans-serif" font-size="18" font-weight="700">RAG Search</text>
  <rect x="718" y="646" width="166" height="46" rx="16" fill="#F4F8FD" stroke="#D6E4F4"/>
  <text x="742" y="675" fill="#20314A" font-family="Arial, Helvetica, sans-serif" font-size="18" font-weight="700">Vector Recall</text>

  <path d="M918 570H1048" stroke="url(#accent)" stroke-width="8" stroke-linecap="round" stroke-dasharray="12 16"/>
  <circle cx="968" cy="570" r="12" fill="#60A5FA"/>
  <circle cx="1012" cy="570" r="12" fill="#3B82F6"/>

  <rect x="1072" y="428" width="296" height="272" rx="30" fill="#172338"/>
  <text x="1108" y="484" fill="#FFFFFF" font-family="Arial, Helvetica, sans-serif" font-size="26" font-weight="700">Storage and delivery</text>
  <rect x="1108" y="524" width="110" height="42" rx="16" fill="#22324C" stroke="#405271"/>
  <text x="1130" y="551" fill="#D9E4F2" font-family="Arial, Helvetica, sans-serif" font-size="18" font-weight="700">Chroma</text>
  <rect x="1232" y="524" width="110" height="42" rx="16" fill="#22324C" stroke="#405271"/>
  <text x="1260" y="551" fill="#D9E4F2" font-family="Arial, Helvetica, sans-serif" font-size="18" font-weight="700">Milvus</text>
  <rect x="1108" y="586" width="234" height="74" rx="20" fill="#20314A" stroke="#324560"/>
  <path d="M1142 622H1298" stroke="#93C5FD" stroke-width="4" stroke-linecap="round"/>
  <path d="M1142 646H1246" stroke="#FCA5A5" stroke-width="4" stroke-linecap="round"/>
  <text x="1112" y="696" fill="#9FB3C9" font-family="Arial, Helvetica, sans-serif" font-size="20">Code-backed architecture, no invented topology.</text>

  <rect x="228" y="718" width="1140" height="1" fill="#D8E4F2"/>
  <text x="228" y="778" fill="#6B7E96" font-family="Arial, Helvetica, sans-serif" font-size="20">Homepage concept art for stack signals, model flexibility, and retrieval-centered runtime framing.</text>
</svg>
